<svg width="482" height="487" xmlns="http://www.w3.org/2000/svg" xmlns:xlink="http://www.w3.org/1999/xlink" xml:space="preserve" overflow="hidden"><g transform="translate(-530 -54)"><g><g><g><g><path d="M1.37634 450.163C1.17972 449.868 17.106 428.141 36.6697 401.991 56.2335 375.84 97.8187 320.197 129.081 278.415L185.905 202.421 182.267 198.292C180.203 196.031 138.421 150.906 89.4624 98.0154 40.5038 45.0261 0.294931 1.37634 0.196621 0.884793 0 0.393241 8.553 0 20.8418 0.0983103L41.7819 0.196621 48.6636 7.76651C52.4977 11.8955 88.086 50.3349 127.803 93.2965 167.521 136.258 201.143 172.633 202.519 174.206L204.977 177.057 224.639 150.71C235.453 136.258 265.241 96.3441 290.802 62.1321L337.401 0 408.676 0C467.957 0 479.853 0.196621 479.459 1.27803 479.164 2.06452 461.075 26.4455 439.25 55.6436 417.426 84.7435 392.455 118.169 383.803 129.77 375.054 141.37 349.395 175.877 326.587 206.255 303.779 236.731 285.1 262.095 285.1 262.488 285.1 263.177 405.628 394.028 446.624 437.776L458.323 450.261 436.793 450.261 415.361 450.163 390.292 423.029C376.528 408.086 342.808 371.515 315.281 341.923L265.438 288.049 204.977 368.86 144.418 449.77 73.1429 450.261C33.917 450.556 1.57296 450.458 1.37634 450.163ZM170.273 363.06C193.573 331.797 229.555 283.724 250.2 256.098 270.845 228.571 316.657 167.226 352.049 119.939 387.441 72.553 416.737 33.3272 417.229 32.639 417.819 31.7542 410.839 31.4593 385.376 31.4593L352.836 31.4593 288.344 117.776C139.502 316.657 64.3932 417.131 63.5084 418.605 62.9186 419.49 69.6037 419.785 95.2627 419.785L127.803 419.785 170.273 363.06Z" fill="#000000" fill-rule="nonzero" fill-opacity="1" transform="matrix(1 0 0 -1.07702 531.123 541)"/></g></g></g></g></g></svg>